Coordinates
version=1
nRows=8
nColumns=40
inDegrees=yes

Units are S.I. units (second, meters, Newtons, ...)
Angles are in degrees.

endheader
time	pelvis_tilt	pelvis_list	pelvis_rotation	pelvis_tx	pelvis_ty	pelvis_tz	hip_flexion_r	hip_adduction_r	hip_rotation_r	knee_angle_r	knee_angle_r_beta	ankle_angle_r	subtalar_angle_r	mtp_angle_r	hip_flexion_l	hip_adduction_l	hip_rotation_l	knee_angle_l	knee_angle_l_beta	ankle_angle_l	subtalar_angle_l	mtp_angle_l	lumbar_extension	lumbar_bending	lumbar_rotation	arm_flex_r	arm_add_r	arm_rot_r	elbow_flex_r	pro_sup_r	wrist_flex_r	wrist_dev_r	arm_flex_l	arm_add_l	arm_rot_l	elbow_flex_l	pro_sup_l	wrist_flex_l	wrist_dev_l
      0.00000000	     -5.05030595	      6.17851436	      6.46476442	     -0.80275133	      0.95537371	     -1.40408595	     33.10692361	    -10.52220922	    -11.08842942	    -52.99043407	     -0.92485755	      3.83213824	    -15.16040966	     16.34184245	      0.87403270	     -5.48506729	      9.02147372	     -8.17950865	     -0.14275936	      3.14601449	     -1.06648255	     -8.32498529	     -2.19628309	     -4.52129894	     -5.11401448	      2.27832616	    -10.19753084	     -8.04442684	     17.69091304	     89.95437384	      0.00000000	      0.00000000	      8.31671665	     18.29069162	      8.99169180	     19.79979768	     89.95437384	      0.00000000	      0.00000000
      0.01000000	     -5.45431933	      6.32002596	      6.75111578	     -0.79111122	      0.95342271	     -1.40709402	     34.25745466	    -10.75459491	    -11.63705057	    -50.13454213	     -0.87501283	      4.12283810	    -14.72152413	     16.17613495	      0.35989081	     -5.81257645	      9.13611017	     -7.97679517	     -0.13922134	      3.61969232	     -1.21792838	     -8.36096733	     -1.80093657	     -4.66335337	     -5.61714612	      1.24437761	    -10.45665257	     -8.16422202	     17.16768510	     89.95437384	      0.00000000	      0.00000000	      9.69607593	     19.10198619	      9.22087813	     20.96082780	     89.95437384	      0.00000000	      0.00000000
      0.02000000	     -4.81808885	      5.42667096	      7.44108083	     -0.77868204	      0.95324973	     -1.40987487	     33.55288769	    -10.04775738	    -13.35631064	    -46.25222714	     -0.80725365	      4.10857139	    -13.76598921	     16.23388078	     -1.38694795	     -4.81034899	      8.36458216	     -7.42203048	     -0.12953887	      4.27143838	     -1.69502019	     -8.77490042	     -2.53901983	     -3.53914195	     -6.67334181	      0.81924386	    -10.56607169	     -9.77460500	     16.01365178	     89.95437384	      0.00000000	      0.00000000	     10.94341271	     19.69984779	     10.21364979	     22.55700421	     89.95437384	      0.00000000	      0.00000000
      0.03000000	     -5.10447182	      5.31977428	      7.71061105	     -0.76659628	      0.95110090	     -1.41235682	     34.23691945	     -9.95213316	    -13.83055642	    -42.76993053	     -0.74647611	      3.93445669	    -12.62091148	     16.15007267	     -2.11853571	     -4.80825430	      8.38347526	     -7.02029024	     -0.12252718	      4.73868054	     -2.05182272	     -8.92555896	     -2.22436214	     -3.42400010	     -7.17664287	     -0.09827610	    -10.76516993	    -10.29159445	     15.39393430	     89.95437384	      0.00000000	      0.00000000	     12.04635389	     20.47884747	     10.51147010	     24.09560191	     89.95437384	      0.00000000	      0.00000000
      0.04000000	     -4.59034375	      4.95146587	      8.00754751	     -0.75386652	      0.95021805	     -1.41470906	     33.64101232	     -9.53657001	    -14.65930144	    -38.78554246	     -0.67693542	      4.15117051	    -11.48098194	     16.03353031	     -3.78339746	     -4.32484904	      8.75526024	     -6.47025914	     -0.11292733	      5.02513000	     -2.88139541	     -9.36905223	     -2.80218175	     -2.86653279	     -7.74431860	     -0.79877564	    -10.91155807	    -12.05160555	     14.75563396	     89.95437384	      0.00000000	      0.00000000	     13.24622413	     21.12365386	     11.04454865	     25.63680375	     89.95437384	      0.00000000	      0.00000000
      0.05000000	     -4.43360356	      4.76187849	      8.14004855	     -0.74116576	      0.94848801	     -1.41675627	     33.52750573	     -9.22380358	    -15.05678801	    -34.88070993	     -0.60878323	      4.06596666	    -10.54461556	     15.84514238	     -5.03642487	     -4.09055969	      9.24070148	     -6.01581319	     -0.10499575	      5.29013467	     -3.70339791	     -9.86793593	     -2.93486915	     -2.58971443	     -8.09881059	     -1.60087709	    -11.10579411	    -13.16917710	     14.11366413	     89.95437384	      0.00000000	      0.00000000	     14.39333532	     21.78102549	     11.28029425	     27.05167574	     89.95437384	      0.00000000	      0.00000000
      0.06000000	     -4.26150110	      4.57532346	      8.26634169	     -0.72850693	      0.94656222	     -1.41868098	     33.34097335	     -8.95917679	    -15.52907237	    -30.94846021	     -0.54015253	      3.82318589	     -9.63572365	     15.62730373	     -6.21555038	     -3.82688103	      9.72364963	     -5.74631702	     -0.10029215	      5.62339390	     -4.49208592	    -10.40039143	     -3.08395711	     -2.32946449	     -8.44815804	     -2.36365084	    -11.27245910	    -14.48632159	     13.50610430	     89.95437384	      0.00000000	      0.00000000	     15.43419786	     22.49037151	     11.33694954	     28.62466122	     89.95437384	      0.00000000	      0.00000000
      0.07000000	     -4.18957894	      4.44569248	      8.35608282	     -0.71575136	      0.94432382	     -1.42042688	     33.24153429	     -8.75538146	    -15.95636441	    -27.12395119	     -0.47340225	      3.58621469	     -8.60340207	     15.26403770	     -7.23708794	     -3.63408189	     10.28105812	     -5.58690586	     -0.09750990	      5.91155979	     -5.24791966	    -10.95926221	     -3.15584515	     -2.11999970	     -8.72393241	     -3.14285952	    -11.47332103	    -15.68793166	     12.97509219	     89.95437384	      0.00000000	      0.00000000	     16.53573180	     23.08618806	     11.67650735	     30.01305641	     89.95437384	      0.00000000	      0.00000000
